<svg width="37" height="37" viewBox="0 0 37 37" fill="none" xmlns="http://www.w3.org/2000/svg">
<g clip-path="url(#clip0_409_3082)">
<path d="M25 12.5C25 19.4036 19.4036 25 12.5 25C5.59644 25 -2.44628e-07 19.4036 -5.46392e-07 12.5C-8.48156e-07 5.59644 5.59644 -2.44628e-07 12.5 -5.46392e-07C19.4004 0.00757705 24.9924 5.59958 25 12.5ZM2.5 12.5C2.50139 17.9932 6.93358 22.4569 12.4267 22.4972C17.9198 22.5375 22.4169 18.1393 22.4989 12.6466C22.5808 7.15399 18.2169 2.6236 12.725 2.5L14.9537 2.5L12.5 2.5C6.97972 2.5062 2.5062 6.97972 2.5 12.5ZM18.75 12.5L12.5 18.75L6.25 12.5L8.0125 10.7375L11.25 13.9625L11.25 6.25L13.75 6.25L13.75 13.9625L16.9875 10.7375L18.75 12.5Z" fill="#575757"/>
</g>
<defs>
<clipPath id="clip0_409_3082">
<rect width="25" height="25" fill="white" transform="translate(0 25) rotate(-90)"/>
</clipPath>
</defs>
</svg>
