<svg width="37" height="37" viewBox="0 0 37 37" fill="none" xmlns="http://www.w3.org/2000/svg">
<path d="M3.82779 21.3388C-1.05376 16.4573 -1.05376 8.54271 3.82779 3.66116C8.70934 -1.22039 16.6239 -1.22039 21.5055 3.66116C26.387 8.54271 26.387 16.4573 21.5055 21.3388C16.6208 26.2128 8.71248 26.2128 3.82779 21.3388ZM19.7377 5.42893C15.8524 1.5456 9.56207 1.52333 5.64938 5.37906C1.73669 9.23479 1.66672 15.5248 5.49266 19.4666C9.3186 23.4084 15.6079 23.5261 19.5786 19.7302L18.0026 21.3061L19.7377 19.5711C23.6367 15.6633 23.6367 9.33674 19.7377 5.42893ZM8.24721 16.9194V8.08058H17.086V10.5731L12.5164 10.582L17.9699 16.0355L16.2022 17.8033L10.7486 12.3497L10.7398 16.9194L8.24721 16.9194Z" fill="#575757"/>
</svg>
