<svg width="37" height="37" viewBox="0 0 37 37" fill="none" xmlns="http://www.w3.org/2000/svg">
<path d="M3.81687 3.66117C8.69842 -1.22039 16.613 -1.22039 21.4945 3.66117C26.3761 8.54272 26.3761 16.4573 21.4945 21.3388C16.613 26.2204 8.69842 26.2204 3.81687 21.3388C-1.0571 16.4541 -1.0571 8.54586 3.81687 3.66117ZM19.7268 19.5711C23.6101 15.6858 23.6324 9.39544 19.7766 5.48276C15.9209 1.57007 9.63093 1.50009 5.68911 5.32604C1.74729 9.15198 1.62961 15.4412 5.42554 19.412L3.84958 17.836L5.58464 19.5711C9.49245 23.4701 15.819 23.4701 19.7268 19.5711ZM8.23629 8.08058H17.0751V16.9194H14.5826L14.5737 12.3497L9.12017 17.8033L7.3524 16.0355L12.806 10.582L8.23629 10.5731L8.23629 8.08058Z" fill="#575757"/>
</svg>
