<svg width="37" height="37" viewBox="0 0 37 37" fill="none" xmlns="http://www.w3.org/2000/svg">
<path d="M12.5 25C5.59644 25 0 19.4036 0 12.5C0 5.59644 5.59644 0 12.5 0C19.4036 0 25 5.59644 25 12.5C24.9924 19.4004 19.4004 24.9924 12.5 25ZM12.5 2.5C6.97715 2.5 2.5 6.97715 2.5 12.5C2.5 18.0228 6.97715 22.5 12.5 22.5C18.0228 22.5 22.5 18.0228 22.5 12.5C22.4938 6.97972 18.0203 2.5062 12.5 2.5ZM18.75 13.75H11.25V6.25H13.75V11.25H18.75V13.75Z" fill="#575757"/>
<path d="M12.5 8.14564e-07C19.4036 1.41809e-06 25 5.59644 25 12.5C25 19.4036 19.4036 25 12.5 25C5.59644 25 2.3966e-06 19.4036 3.00013e-06 12.5C0.0075815 5.59958 5.59958 0.00757811 12.5 8.14564e-07ZM12.5 22.5C18.0228 22.5 22.5 18.0228 22.5 12.5C22.5 6.97715 18.0229 2.5 12.5 2.5C6.97716 2.5 2.5 6.97715 2.5 12.5C2.5062 18.0203 6.97973 22.4938 12.5 22.5ZM6.25 11.25L13.75 11.25L13.75 18.75L11.25 18.75L11.25 13.75L6.25 13.75L6.25 11.25Z" fill="#575757"/>
</svg>
